<?xml version="1.0" encoding="utf-8"?>
<!-- Generator: Adobe Illustrator 19.0.0, SVG Export Plug-In . SVG Version: 6.00 Build 0)  -->
<svg version="1.1" id="Layer_1" xmlns="http://www.w3.org/2000/svg" xmlns:xlink="http://www.w3.org/1999/xlink" x="0px" y="0px"
	 viewBox="0 0 96 96" style="enable-background:new 0 0 96 96;" xml:space="preserve">
<style type="text/css">
	.st0{fill:#E65A2E;}
	.st1{fill:#CC5028;}
	.st2{fill:#263740;}
	.st3{fill:#1F2C33;}
	.st4{fill:#446373;}
	.st5{fill:#3C5866;}
	.st6{fill:#FFD464;}
	.st7{fill:#242424;}
</style>
<g id="XMLID_1_">
	<circle id="XMLID_3_" class="st0" cx="48" cy="48" r="32.5"/>
	<path id="XMLID_4_" class="st1" d="M76.7,63.3c0-0.1-0.1-0.2-0.1-0.3c0-0.1-0.1-0.2-0.1-0.3c0-0.1-0.1-0.2-0.1-0.3
		c0-0.1-0.1-0.2-0.1-0.3c0-0.1-0.1-0.2-0.1-0.3c0-0.1-0.1-0.2-0.1-0.3c0-0.1-0.1-0.2-0.1-0.3c0-0.1-0.1-0.2-0.1-0.3
		c0-0.1-0.1-0.2-0.1-0.3c0-0.1-0.1-0.2-0.1-0.3c0-0.1-0.1-0.2-0.1-0.3c0-0.1-0.1-0.2-0.1-0.3c0-0.1-0.1-0.2-0.1-0.3
		c0-0.1-0.1-0.2-0.1-0.3c0-0.1-0.1-0.2-0.1-0.3c0-0.1-0.1-0.2-0.1-0.3c0-0.1-0.1-0.2-0.1-0.3c0-0.1-0.1-0.2-0.1-0.3
		c0-0.1-0.1-0.2-0.1-0.3c0-0.1-0.1-0.2-0.1-0.3c0-0.1-0.1-0.2-0.1-0.3c0-0.1-0.1-0.2-0.1-0.3c0-0.1-0.1-0.2-0.1-0.3
		c0-0.1-0.1-0.2-0.1-0.3c0-0.1-0.1-0.2-0.1-0.3c0-0.1-0.1-0.2-0.1-0.3c0-0.1-0.1-0.2-0.1-0.3c0-0.1-0.1-0.2-0.1-0.3
		c0-0.1-0.1-0.2-0.1-0.3c0-0.1-0.1-0.2-0.1-0.3c0-0.1-0.1-0.2-0.1-0.3c0-0.1-0.1-0.2-0.1-0.3c0-0.1-0.1-0.2-0.1-0.3
		c0-0.1-0.1-0.2-0.1-0.3c0-0.1-0.1-0.2-0.1-0.3c0-0.1-0.1-0.2-0.1-0.3c0-0.1-0.1-0.2-0.1-0.3c0-0.1-0.1-0.2-0.1-0.3
		c0-0.1-0.1-0.2-0.1-0.3c0-0.1-0.1-0.2-0.1-0.3c0-0.1-0.1-0.2-0.1-0.3c0-0.1-0.1-0.2-0.1-0.3c0-0.1-0.1-0.2-0.1-0.3
		c0-0.1-0.1-0.2-0.1-0.3c0-0.1-0.1-0.2-0.1-0.3c0-0.1-0.1-0.2-0.1-0.3c0-0.1-0.1-0.2-0.1-0.3c0-0.1-0.1-0.2-0.1-0.3
		c0-0.1-0.1-0.2-0.1-0.3c0-0.1-0.1-0.2-0.1-0.3c0-0.1-0.1-0.2-0.1-0.3c0-0.1-0.1-0.2-0.1-0.3c0-0.1-0.1-0.2-0.1-0.3
		c0-0.1-0.1-0.2-0.1-0.3c0-0.1-0.1-0.2-0.1-0.3c0-0.1-0.1-0.2-0.1-0.3c0-0.1-0.1-0.2-0.1-0.3c0-0.1-0.1-0.2-0.1-0.3
		c0-0.1-0.1-0.2-0.1-0.3c0-0.1-0.1-0.2-0.1-0.3c0-0.1-0.1-0.2-0.1-0.3c0-0.1-0.1-0.2-0.1-0.3c0-0.1-0.1-0.2-0.1-0.3
		c0-0.1-0.1-0.2-0.1-0.3c0-0.1-0.1-0.2-0.1-0.3c0-0.1-0.1-0.2-0.1-0.3c0-0.1-0.1-0.2-0.1-0.3c0-0.1-0.1-0.2-0.1-0.3
		c0-0.1-0.1-0.2-0.1-0.3c0-0.1-0.1-0.2-0.1-0.3c0-0.1-0.1-0.2-0.1-0.3c0-0.1-0.1-0.2-0.1-0.3c0-0.1-0.1-0.2-0.1-0.3
		c0-0.1-0.1-0.2-0.1-0.3c0-0.1-0.1-0.2-0.1-0.3c0-0.1-0.1-0.2-0.1-0.3c0-0.1-0.1-0.2-0.1-0.3c0-0.1-0.1-0.2-0.1-0.3
		c0-0.1-0.1-0.2-0.1-0.3c0-0.1-0.1-0.2-0.1-0.3c0-0.1-0.1-0.2-0.1-0.3c0-0.1-0.1-0.2-0.1-0.3c0-0.1-0.1-0.2-0.1-0.3
		c0-0.1-0.1-0.2-0.1-0.3c0-0.1-0.1-0.2-0.1-0.3c0-0.1-0.1-0.2-0.1-0.3c0-0.1-0.1-0.2-0.1-0.3c-1.1-2.7-2.5-5.4-4.4-8
		c-0.4-0.5-1-0.6-1.5-0.4c-3.5,1.8-6,5.2-7.2,7.5c-0.4-0.3-0.8-0.6-1.2-0.8l0,0c-0.2-0.1-0.4-0.2-0.5-0.2l-0.1-0.1
		c-0.1,0-0.3-0.1-0.4-0.1c-0.1,0-0.2-0.1-0.3-0.1c-0.1,0-0.2,0-0.3-0.1c-0.1,0-0.3-0.1-0.4-0.1c-0.1,0-0.1,0-0.2,0
		c-0.2,0-0.3,0-0.5-0.1c0,0-0.1,0-0.1,0c-0.2,0-0.4,0-0.6,0c-0.3,0-0.5,0-0.8,0h0c-1.5,0.1-2.7,0.6-3.8,1.5c-1.5-3-4-5.9-7.2-7.5
		c-0.1,0-0.2-0.1-0.3-0.1l-0.1,0c-0.1,0-0.2,0-0.3,0l0,0c-0.3,0-0.7,0.2-0.9,0.5c-6.6,9.1-7.5,19.3-7.5,24.4c0,1.6,0.3,3.1,0.9,4.5
		c0,0.1,0.1,0.2,0.1,0.3c0,0.1,0.1,0.2,0.1,0.3c0,0.1,0.1,0.2,0.1,0.3c0,0.1,0.1,0.2,0.1,0.3c0,0.1,0.1,0.2,0.1,0.3
		c0,0.1,0.1,0.2,0.1,0.3c0,0.1,0.1,0.2,0.1,0.3c0,0.1,0.1,0.2,0.1,0.3c0,0.1,0.1,0.2,0.1,0.3c0,0.1,0.1,0.2,0.1,0.3
		c0,0.1,0.1,0.2,0.1,0.3c0,0.1,0.1,0.2,0.1,0.3c0,0.1,0.1,0.2,0.1,0.3c0,0.1,0.1,0.2,0.1,0.3c0,0.1,0.1,0.2,0.1,0.3
		c0,0.1,0.1,0.2,0.1,0.3c0,0.1,0.1,0.2,0.1,0.3c0,0.1,0.1,0.2,0.1,0.3c0,0.1,0.1,0.2,0.1,0.3c0,0.1,0.1,0.2,0.1,0.3
		c0,0.1,0.1,0.2,0.1,0.3c0,0.1,0.1,0.2,0.1,0.3c0,0.1,0.1,0.2,0.1,0.3c0,0.1,0.1,0.2,0.1,0.3c0,0.1,0.1,0.2,0.1,0.3
		c0,0.1,0.1,0.2,0.1,0.3c0,0.1,0.1,0.2,0.1,0.3c0,0.1,0.1,0.2,0.1,0.3c0,0.1,0.1,0.2,0.1,0.3c0,0.1,0.1,0.2,0.1,0.3
		c0,0.1,0.1,0.2,0.1,0.3c0,0.1,0.1,0.2,0.1,0.3c0,0.1,0.1,0.2,0.1,0.3c0,0.1,0.1,0.2,0.1,0.3c0,0.1,0.1,0.2,0.1,0.3
		c0,0.1,0.1,0.2,0.1,0.3c0,0.1,0.1,0.2,0.1,0.3c0,0.1,0.1,0.2,0.1,0.3c0,0.1,0.1,0.2,0.1,0.3c0,0.1,0.1,0.2,0.1,0.3
		c0,0.1,0.1,0.2,0.1,0.3c0,0.1,0.1,0.2,0.1,0.3c0,0.1,0.1,0.2,0.1,0.3c0,0.1,0.1,0.2,0.1,0.3c0,0.1,0.1,0.2,0.1,0.3
		c0,0.1,0.1,0.2,0.1,0.3c0,0.1,0.1,0.2,0.1,0.3c0,0.1,0.1,0.2,0.1,0.3c0,0.1,0.1,0.2,0.1,0.3c0,0.1,0.1,0.2,0.1,0.3
		c0,0.1,0.1,0.2,0.1,0.3c0,0.1,0.1,0.2,0.1,0.3c0,0.1,0.1,0.2,0.1,0.3c0,0.1,0.1,0.2,0.1,0.3c0,0.1,0.1,0.2,0.1,0.3
		c0,0.1,0.1,0.2,0.1,0.3c0,0.1,0.1,0.2,0.1,0.3c0,0.1,0.1,0.2,0.1,0.3c0,0.1,0.1,0.2,0.1,0.3c0,0.1,0.1,0.2,0.1,0.3
		c0,0.1,0.1,0.2,0.1,0.3c0,0.1,0.1,0.2,0.1,0.3c0,0.1,0.1,0.2,0.1,0.3c0,0.1,0.1,0.2,0.1,0.3c0,0.1,0.1,0.2,0.1,0.3
		c0,0.1,0.1,0.2,0.1,0.3c0,0.1,0.1,0.2,0.1,0.3c0,0.1,0.1,0.2,0.1,0.3c0,0.1,0.1,0.2,0.1,0.2c3.5,1.3,7.3,2,11.3,2
		C60.4,80.5,71.2,73.5,76.7,63.3z"/>
	<path id="XMLID_5_" class="st2" d="M48,68.3c-9.9,0-20.8-6.3-20.8-15.7c0-5.1,0.9-15.3,7.5-24.4c0.4-0.5,1-0.6,1.5-0.4
		c3.5,1.8,6,5.2,7.2,7.5c1.3-1,2.8-1.5,4.6-1.5s3.3,0.5,4.6,1.5c1.2-2.3,3.6-5.7,7.2-7.5c0.5-0.3,1.2-0.1,1.5,0.4
		c6.6,9.1,7.5,19.3,7.5,24.4C68.8,62,57.9,68.3,48,68.3z"/>
	<path id="XMLID_6_" class="st3" d="M61.3,28.2c-0.4-0.5-1-0.6-1.5-0.4c-0.1,0-0.2,0.1-0.2,0.1c0.1,0.1,0.2,0.2,0.3,0.3
		c6.6,9.1,7.5,19.3,7.5,24.4c0,9.2-10.4,15.4-20.1,15.7c0.3,0,0.5,0,0.8,0c9.9,0,20.8-6.3,20.8-15.7C68.8,47.5,67.9,37.3,61.3,28.2z
		"/>
	<path id="XMLID_7_" class="st4" d="M30.1,60.5c3.9,4.9,11.1,7.8,17.9,7.8s14-2.9,17.9-7.8c-1-6.2-8.7-11-17.9-11
		C38.8,49.5,31.1,54.3,30.1,60.5z"/>
	<path id="XMLID_8_" class="st5" d="M49.5,68.3c0.3,0,0.6,0,0.9-0.1c0.1,0,0.2,0,0.3,0c0.4,0,0.8-0.1,1.1-0.2c0.1,0,0.1,0,0.2,0
		c0.3-0.1,0.7-0.1,1-0.2c0.1,0,0.2,0,0.3-0.1c0.3-0.1,0.6-0.1,1-0.2c0.1,0,0.1,0,0.2,0c0.4-0.1,0.8-0.2,1.1-0.3c0.1,0,0.1,0,0.2-0.1
		c0.3-0.1,0.6-0.2,1-0.3c0.1,0,0.2-0.1,0.2-0.1c0.7-0.3,1.5-0.6,2.2-0.9c0.1,0,0.1-0.1,0.2-0.1c0.3-0.2,0.6-0.3,0.9-0.5
		c0.1,0,0.1-0.1,0.2-0.1c0.7-0.4,1.4-0.8,2-1.3l0.1-0.1c0.3-0.2,0.6-0.4,0.9-0.7l0.1-0.1c0.6-0.5,1.2-1,1.7-1.6l0.1-0.1
		c0.2-0.3,0.5-0.5,0.7-0.8l0,0c-0.1-0.5-0.2-1.1-0.4-1.6c-3.4,5.6-11,9.1-18.2,9.4c0.2,0,0.5,0,0.7,0c0.4,0,0.8,0,1.1,0
		C49.3,68.3,49.4,68.3,49.5,68.3z"/>
	<path id="XMLID_9_" class="st3" d="M52.1,35.9c0.1-0.2,0.2-0.4,0.5-0.6c-1.6-1.3-3.3-1.5-4.6-1.5c-0.3,0-0.5,0-0.8,0
		C48.7,33.9,51,35,52.1,35.9z"/>
	<path id="XMLID_10_" class="st3" d="M42.4,35.8c0.3-0.3,0.6-0.3,1-0.5c-1.5-3-4-5.9-7.2-7.5c-0.4-0.2-0.9-0.2-1.3,0.1
		C38.4,29.7,41.2,33.6,42.4,35.8z"/>
	<circle id="XMLID_11_" class="st6" cx="42" cy="46" r="2.5"/>
	<circle id="XMLID_12_" class="st7" cx="42" cy="46" r="1.2"/>
	<circle id="XMLID_13_" class="st6" cx="53.5" cy="46" r="2.5"/>
	<circle id="XMLID_14_" class="st7" cx="53.5" cy="46" r="1.2"/>
	<path id="XMLID_15_" class="st7" d="M41.9,54.1c-0.1,0-0.1,0-0.2,0l-8.1-2.5c-0.3-0.1-0.4-0.4-0.3-0.6c0.1-0.3,0.4-0.4,0.6-0.3
		l8.1,2.5c0.3,0.1,0.4,0.4,0.3,0.6C42.3,54,42.1,54.1,41.9,54.1z"/>
	<path id="XMLID_16_" class="st7" d="M41.9,57.6c-0.1,0-0.1,0-0.2,0l-8.1-2.5c-0.3-0.1-0.4-0.4-0.3-0.6c0.1-0.3,0.4-0.4,0.6-0.3
		l8.1,2.5c0.3,0.1,0.4,0.4,0.3,0.6C42.3,57.5,42.1,57.6,41.9,57.6z"/>
	<path id="XMLID_17_" class="st7" d="M55.6,54.1c0.1,0,0.1,0,0.2,0l8.1-2.5c0.3-0.1,0.4-0.4,0.3-0.6c-0.1-0.3-0.4-0.4-0.6-0.3
		l-8.1,2.5c-0.3,0.1-0.4,0.4-0.3,0.6C55.2,54,55.4,54.1,55.6,54.1z"/>
	<path id="XMLID_18_" class="st7" d="M55.6,57.6c0.1,0,0.1,0,0.2,0l8.1-2.5c0.3-0.1,0.4-0.4,0.3-0.6c-0.1-0.3-0.4-0.4-0.6-0.3
		l-8.1,2.5c-0.3,0.1-0.4,0.4-0.3,0.6C55.2,57.5,55.4,57.6,55.6,57.6z"/>
	<path id="XMLID_19_" class="st4" d="M41.4,35.9c-0.7-1.3-2.6-4.2-5.5-5.9c-2.3,3.3-3.8,6.8-4.8,10C34.5,37.6,38.2,36.5,41.4,35.9z"
		/>
	<path id="XMLID_20_" class="st4" d="M54.4,35.9c0.7-1.3,2.6-4.2,5.5-5.9c2.3,3.3,3.8,6.8,4.8,10C61.4,37.6,57.6,36.5,54.4,35.9z"/>
	<path id="XMLID_21_" class="st7" d="M51.7,51.4c-0.1-0.2-0.3-0.4-0.6-0.4H48h-3.1c-0.3,0-0.5,0.2-0.6,0.4c-0.1,0.2-0.1,0.5,0.1,0.7
		l3,3.3l-2.3,2.3c-0.2,0.2-0.2,0.5,0,0.7c0.2,0.2,0.5,0.2,0.7,0l2.2-2.2l2.2,2.2c0.1,0.1,0.2,0.1,0.4,0.1c0.1,0,0.3,0,0.4-0.1
		c0.2-0.2,0.2-0.5,0-0.7l-2.3-2.3l3-3.3C51.8,51.9,51.8,51.7,51.7,51.4z"/>
</g>
</svg>
